<svg width="30" height="28" viewBox="0 0 30 28" fill="none" xmlns="http://www.w3.org/2000/svg">
<path d="M28.6364 6.81865H24.4936L25.8614 1.71723C26.0564 0.990384 25.6254 0.241814 24.8973 0.0468058C24.1692 -0.148202 23.4204 0.284011 23.2269 1.01086L21.6711 6.81865H11.9864L13.3542 1.71723C13.5492 0.990384 13.1182 0.241814 12.3901 0.0468058C11.6618 -0.146704 10.9147 0.284011 10.7209 1.01086L9.16362 6.81865H4.09092C3.33811 6.81865 2.72736 7.42814 2.72736 8.1822C2.72736 8.93652 3.33811 9.54601 4.09092 9.54601H8.43128L6.23726 17.7279H1.36356C0.610991 17.7279 0 18.3373 0 19.0914C0 19.8455 0.610991 20.455 1.36356 20.455H5.50641L4.13861 25.5564C3.9436 26.2832 4.37457 27.0318 5.10266 27.2268C5.22002 27.2583 5.33862 27.2732 5.45448 27.2732C6.05598 27.2732 6.60829 26.8722 6.77059 26.2628L8.32916 20.455H18.0136L16.6458 25.5564C16.4511 26.2832 16.8818 27.0318 17.6101 27.2268C17.7272 27.2583 17.8458 27.2732 17.9632 27.2732C18.5647 27.2732 19.1168 26.8722 19.2791 26.2628L20.8364 20.455H25.9091C26.6619 20.455 27.2729 19.8455 27.2729 19.0914C27.2729 18.3373 26.6619 17.7279 25.9091 17.7279H21.5687L23.7627 9.54601H28.6364C29.3893 9.54601 30 8.93652 30 8.1822C30 7.42814 29.3893 6.81865 28.6364 6.81865ZM18.7445 17.7279H9.06L11.254 9.54601H20.9388L18.7445 17.7279Z" fill="black"/>
</svg>
