<svg width="33" height="26" viewBox="0 0 33 26" fill="none" xmlns="http://www.w3.org/2000/svg">
<path d="M30.45 0.5L2.55 0.5C1.41786 0.5 0.5 1.41777 0.5 2.55L0.5 23.2166C0.5 24.3488 1.41777 25.2666 2.55 25.2666L30.45 25.2666C31.5821 25.2666 32.5 24.3489 32.5 23.2166L32.5 2.55C32.5 1.41786 31.5822 0.5 30.45 0.5ZM30.4666 23.2167C30.4666 23.2259 30.4592 23.2334 30.45 23.2334L2.55 23.2334C2.54079 23.2334 2.53335 23.2259 2.53335 23.2167L2.53335 2.55C2.53335 2.54079 2.54078 2.53335 2.55 2.53335L30.45 2.53335C30.4592 2.53335 30.4666 2.54079 30.4666 2.55L30.4666 23.2167Z" fill="black" stroke="black"/>
<path d="M30.195 2.92938C30.3685 3.13596 30.4528 3.40303 30.4293 3.67167C30.4058 3.94014 30.2768 4.18841 30.0702 4.36182C30.0702 4.36187 30.0701 4.36193 30.07 4.36199L18.1512 14.3739C18.1511 14.374 18.1509 14.3741 18.1508 14.3742C17.1966 15.1772 15.803 15.1772 14.8488 14.3742L30.195 2.92938ZM30.195 2.92938C30.0215 2.7227 29.7733 2.59374 29.5049 2.5703L29.4614 3.06806L29.5049 2.5703C29.2363 2.54683 28.9692 2.63105 28.7626 2.80462L16.8431 12.8175L16.843 12.8176C16.6445 12.9844 16.3549 12.9844 16.1565 12.8176L16.1564 12.8175L4.23695 2.80453L4.2368 2.80441C3.95865 2.57093 3.57698 2.50348 3.23561 2.62764C2.89424 2.75179 2.64503 3.04868 2.58189 3.40642C2.51877 3.76406 2.65117 4.12821 2.9293 4.36176C2.92935 4.36179 2.92939 4.36183 2.92944 4.36187L14.8484 14.3738L30.195 2.92938Z" fill="black" stroke="black"/>
<path d="M3.35383 23.1842L3.35386 23.1842C3.71159 23.264 4.08428 23.1451 4.32971 22.8735L11.5566 15.1304C11.8108 14.8668 11.9037 14.4865 11.7992 14.1351C11.6941 13.7819 11.4061 13.5129 11.0461 13.4326C10.6883 13.3528 10.3156 13.4717 10.0702 13.7434L2.84328 21.4865C2.58917 21.7501 2.49628 22.1303 2.60075 22.4817C2.70583 22.8351 2.99404 23.1039 3.35383 23.1842Z" fill="black" stroke="black"/>
<path d="M22.9304 13.7434C22.6849 13.4716 22.3121 13.3528 21.9545 13.4326C21.5945 13.5129 21.3064 13.7819 21.2014 14.1351L21.2013 14.1352C21.0969 14.4866 21.1897 14.8668 21.4439 15.1304L28.674 22.8769L28.6739 22.877L28.6818 22.8851C29.0678 23.2803 29.6988 23.2952 30.1028 22.9182C30.5067 22.5413 30.5358 21.9108 30.1682 21.4983L30.1683 21.4982L30.1604 21.4898L22.9304 13.7434Z" fill="black" stroke="black"/>
</svg>
