<svg width="11" height="15" viewBox="0 0 11 15" fill="none" xmlns="http://www.w3.org/2000/svg">
<circle cx="5.5" cy="9.5" r="5.5" fill="black"/>
<path d="M4.736 11.348C4.736 11.028 4.788 10.748 4.892 10.508C5.004 10.26 5.136 10.052 5.288 9.884C5.448 9.716 5.656 9.516 5.912 9.284C6.232 9.004 6.468 8.764 6.62 8.564C6.772 8.356 6.848 8.108 6.848 7.82C6.848 7.428 6.696 7.116 6.392 6.884C6.088 6.644 5.668 6.524 5.132 6.524C4.196 6.524 3.48 6.84 2.984 7.472L2.108 6.848C2.444 6.416 2.872 6.084 3.392 5.852C3.92 5.62 4.528 5.504 5.216 5.504C6.088 5.504 6.78 5.696 7.292 6.08C7.804 6.456 8.06 6.976 8.06 7.64C8.06 7.968 8.004 8.26 7.892 8.516C7.788 8.764 7.66 8.972 7.508 9.14C7.356 9.308 7.152 9.508 6.896 9.74C6.568 10.036 6.324 10.296 6.164 10.52C6.012 10.744 5.936 11.02 5.936 11.348H4.736ZM5.348 14.072C5.124 14.072 4.936 14 4.784 13.856C4.64 13.704 4.568 13.52 4.568 13.304C4.568 13.088 4.64 12.908 4.784 12.764C4.936 12.612 5.124 12.536 5.348 12.536C5.572 12.536 5.756 12.612 5.9 12.764C6.044 12.908 6.116 13.088 6.116 13.304C6.116 13.52 6.04 13.704 5.888 13.856C5.744 14 5.564 14.072 5.348 14.072Z" fill="white"/>
</svg>
